# AST/ASF file generated using VICON BodyLanguage
# -----------------------------------------------
:version 1.10
:name VICON
:units
  mass 1.0
  length 0.45
  angle deg
:documentation
   .ast/.asf automatically generated from VICON data using
   VICON BodyBuilder and BodyLanguage model FoxedUp or BRILLIANT.MOD
:root
   order TX TY TZ RX RY RZ
   axis XYZ
   position 0 0 0  
   orientation 0 0 0 
:bonedata
  begin
     id 1 
     name lhipjoint
     direction 0.646657 -0.683706 0.338203 
     length 2.4948 
     axis 0 0 0  XYZ
  end
  begin
     id 2 
     name lfemur
     direction 0.34202 -0.939693 0  
     length 6.79491  
     axis 0 0 20  XYZ
    dof rx ry rz
    limits (-160.0 20.0)
           (-70.0 70.0)
           (-60.0 70.0)
  end
  begin
     id 3 
     name ltibia
     direction 0.34202 -0.939693 0   
     length 7.56807   
     axis 0 0 20   XYZ
    dof rx
    limits (-10.0 170.0)
  end
  begin
     id 4 
     name lfoot
     direction 0.0679796 -0.186772 0.980048   
     length 2.53018   
     axis -90 7.62852e-016 20   XYZ
    dof rx rz
    limits (-45.0 90.0)
           (-70.0 20.0)
  end
  begin
     id 5 
     name ltoes
     direction 1.53625e-011 -4.21881e-011 1   
     length 1.26912   
     axis -90 7.62852e-016 20   XYZ
    dof rx
    limits (-90.0 20.0)
  end
  begin
     id 6 
     name rhipjoint
     direction -0.618868 -0.704065 0.348274   
     length 2.42265  
     axis 0 0 0  XYZ 
  end
  begin
     id 7 
     name rfemur
     direction -0.34202 -0.939693 0   
     length 6.73814   
     axis 0 0 -20   XYZ
    dof rx ry rz
    limits (-160.0 20.0)
           (-70.0 70.0)
           (-70.0 60.0)
  end
  begin
     id 8 
     name rtibia
     direction -0.34202 -0.939693 0   
     length 7.66799   
     axis 0 0 -20   XYZ
    dof rx
    limits (-10.0 170.0)
 end
 begin
     id 9 
     name rfoot
     direction -0.0727352 -0.199838 0.977125   
     length 2.57224  
     axis -90 -7.62852e-016 -20   XYZ
    dof rx rz
    limits (-45.0 90.0)
           (-20.0 70.0)
  end
  begin
     id 10 
     name rtoes
     direction -1.53501e-011 -4.21858e-011 1   
     length 1.28858   
     axis -90 -7.62852e-016 -20   XYZ
    dof rx
    limits (-90.0 20.0)
  end
  begin
     id 11 
     name lowerback
     direction -0.0172471 0.995767 -0.0902851   
     length 2.20206   
     axis 0 0 0   XYZ
    dof rx ry rz
    limits (-20.0 45.0)
           (-30.0 30.0)
           (-30.0 30.0)
  end
  begin
     id 12 
     name upperback
     direction -0.000110737 0.999714 0.0239043   
     length 2.19523   
     axis 0 0 0   XYZ
    dof rx ry rz
    limits (-20.0 45.0)
           (-30.0 30.0)
           (-30.0 30.0)
  end
  begin
     id 13 
     name thorax
     direction 0.00704869 0.997783 0.0661741   
     length 2.21977   
     axis 0 0 0   XYZ
    dof rx ry rz
    limits (-20.0 45.0)
           (-30.0 30.0)
           (-30.0 30.0)
  end
  begin
     id 14 
     name lowerneck
     direction -0.00407501 0.995527 0.0943846   
     length 1.83142   
     axis 0 0 0   XYZ
    dof rx ry rz
    limits (-20.0 45.0)
           (-30.0 30.0)
           (-30.0 30.0)
  end
  begin
     id 15 
     name upperneck
     direction 0.0640586 0.986486 -0.150807   
     length 1.84616   
     axis 0 0 0   XYZ
    dof rx ry rz
    limits (-20.0 45.0)
           (-30.0 30.0)
           (-30.0 30.0)
  end
  begin
     id 16
     name head
     direction 0.0188017 0.99791 -0.0618239  
     length 1.85932  
     axis 0 0 0   XYZ
    dof rx ry rz
    limits (-20.0 45.0)
           (-30.0 30.0)
           (-30.0 30.0)
  end
  begin
     id 17 
     name lclavicle
     direction 0.976074 0.206905 0.066852  
     length 3.81043  
     axis 0 0 0   XYZ
    dof ry rz
    limits (-20.0 10.0)
           (0.0 20.0)
  end
  begin
     id 18 
     name lhumerus
     direction 1 -4.48971e-011 1.86916e-027   
     length 5.37587   
     axis 180 -30 -90   XYZ
    dof rx ry rz
    limits (-60.0 90.0)
           (-90.0 90.0)
           (-90.0 90.0)
  end
  begin
     id 19
     name lradius
     direction 1 -4.48968e-011 1.69187e-027   
     length 3.35977   
     axis 180 -30 -90   XYZ
    dof rx
    limits (-10.0 170.0)
  end
  begin
     id 20
     name lwrist
     direction 1 -4.48968e-011 5.8978e-027   
     length 1.67988   
     axis -3.27506e-015 90 90   XYZ
    dof ry
    limits (-180.0 0.0)
 end
  begin
     id 21 
     name lhand
     direction 1 -4.49028e-011 1.18071e-026   
     length 0.561859   
     axis -7.52654e-015 90 90   XYZ
    dof rx rz
    limits (-90.0 90.0)
           (-45.0 45.0)
  end
  begin
     id 22 
     name lfingers
     direction 1 -4.48927e-011 2.35758e-026   
     length 0.452985   
     axis -1.50534e-014 90 90   XYZ
    dof rx
    limits (0.0 90.0)
  end
  begin
     id 23
     name lthumb
     direction 0.707107 -6.34898e-011 0.707107   
     length 0.650399   
     axis -90 45 5.69224e-014   XYZ
    dof rx rz
    limits (-45.0 45.0)
           (-45.0 45.0)
  end
  begin
     id 24 
     name rclavicle
     direction -0.988403 0.151789 0.00439714   
     length 3.6942  
     axis 0 0 0   XYZ 
    dof ry rz
    limits (-10.0 20.0)
           (-20.0 0.0)
  end
  begin
     id 25 
     name rhumerus
     direction -1 -4.48978e-011 1.62495e-027  
     length 5.22819   
     axis 180 30 90   XYZ
    dof rx ry rz
    limits (-90.0 60.0)
           (-90.0 90.0)
           (-90.0 90.0)
  end
  begin
     id 26 
     name rradius
     direction -1 -4.48961e-011 3.47796e-027   
     length 3.40764   
     axis 180 30 90   XYZ
    dof rx
    limits (-10.0 170.0)
  end
  begin
     id 27 
     name rwrist
     direction -1 -4.48949e-011 5.89602e-027   
     length 1.70382   
     axis -3.27506e-015 -90 -90   XYZ
    dof ry
    limits (-180.0 0.0)
  end
  begin
     id 28
     name rhand
     direction -1 -4.48977e-011 1.17973e-026   
     length 0.583255   
     axis -7.52654e-015 -90 -90   XYZ
    dof rx rz
    limits (-90.0 90.0)
           (-45.0 45.0)
  end
  begin
     id 29
     name rfingers
     direction -1 -4.49099e-011 2.36408e-026   
     length 0.470235   
     axis -1.50534e-014 -90 -90   XYZ
    dof rx
    limits (0.0 90.0)
  end
  begin
     id 30
     name rthumb
     direction -0.707107 -6.35011e-011 0.707107   
     length 0.675167   
     axis -90 -45 -5.69224e-014   XYZ
    dof rx rz
    limits (-45.0 45.0)
           (-45.0 45.0)
  end
:hierarchy
  begin
    root lhipjoint rhipjoint lowerback
    lhipjoint lfemur
    lfemur ltibia
    ltibia lfoot
    lfoot ltoes
    rhipjoint rfemur
    rfemur rtibia
    rtibia rfoot
    rfoot rtoes
    lowerback upperback
    upperback thorax
    thorax lowerneck lclavicle rclavicle
    lowerneck upperneck
    upperneck head
    lclavicle lhumerus
    lhumerus lradius
    lradius lwrist
    lwrist lhand lthumb
    lhand lfingers
    rclavicle rhumerus
    rhumerus rradius
    rradius rwrist
    rwrist rhand rthumb
    rhand rfingers
  end

#!OML:ASF G:\JayActor3\Patient Classification 1\Patient 1\Session 2\male.ASF
:FULLY-SPECIFIED
:DEGREES
528
root -29.874 17.3329 -14.3143 -306.777 -51.5823 295.662
lowerback 24.8333 -1.44841 5.0878
upperback 6.93684 -0.825524 4.13812
thorax -6.10859 -0.672834 1.88228
lowerneck -5.68318 -6.32755 -5.87467
upperneck 5.01743 -9.83 19.5556
head 3.74498 -4.49469 6.42778
rclavicle 1.59028e-015 -1.90833e-014
rhumerus 25.1609 1.11006 -4.35188
rradius 73.8805
rwrist -24.8952
rhand -15.2629 13.9147
rfingers 7.12502
rthumb 10.9112 -15.7818
lclavicle 1.59028e-015 -1.90833e-014
lhumerus 5.9764 -37.184 38.0065
lradius 48.4544
lwrist 15.3488
lhand -24.2667 20.7536
lfingers 7.12502
lthumb 2.2198 50.7218
rfemur -77.7226 -50.0243 8.21837
rtibia 119.095
rfoot -8.87985 9.65823
rtoes -8.78087
lfemur -9.35042 24.6523 -8.54169
ltibia 18.4878
lfoot 1.78615 22.6268
ltoes -16.0483
529
root -30.0343 17.1297 -14.4511 -309.274 -52.6771 298.012
lowerback 25.2195 -1.20227 2.86547
upperback 7.19289 -1.07814 3.48374
thorax -6.01201 -0.776053 2.51133
lowerneck -5.72164 -6.16276 -5.41564
upperneck 4.81936 -9.60118 19.4404
head 3.63498 -4.38822 6.33068
rclavicle -2.46493e-014 -2.22639e-014
rhumerus 23.7902 1.58285 -6.08167
rradius 75.9064
rwrist -24.8026
rhand -15.3352 13.8741
rfingers 7.12502
rthumb 10.8414 -15.826
lclavicle -2.46493e-014 -2.22639e-014
lhumerus 6.25182 -36.6241 40.8012
lradius 46.2851
lwrist 14.4059
lhand -24.2324 21.049
lfingers 7.12502
lthumb 2.25293 51.0168
rfemur -77.2665 -48.2796 7.29419
rtibia 117.44
rfoot -8.00417 10.2297
rtoes -9.86074
lfemur -9.68907 24.0553 -10.297
ltibia 20.7776
lfoot -2.68765 23.6136
ltoes -12.7699
530
root -30.1895 16.9525 -14.5897 -311.756 -53.8148 300.606
lowerback 25.42 -0.891459 0.52133
upperback 7.45251 -1.30283 2.75719
thorax -5.79861 -0.872883 3.12396
lowerneck -5.82946 -6.01679 -4.8363
upperneck 4.65317 -9.40551 19.2348
head 3.5416 -4.29363 6.17951
rclavicle -4.45278e-014 -9.54166e-015
rhumerus 22.2463 2.12716 -8.1213
rradius 78.0677
rwrist -24.7107
rhand -15.4183 13.8233
rfingers 7.12502
rthumb 10.7613 -15.881
lclavicle -4.45278e-014 -9.54166e-015
lhumerus 6.59261 -36.0395 43.5819
lradius 44.0865
lwrist 13.5537
lhand -24.3088 21.3268
lfingers 7.12502
lthumb 2.17911 51.2955
rfemur -77.0311 -46.2177 6.75222
rtibia 115.644
rfoot -7.01736 10.6588
rtoes -10.5994
lfemur -10.2083 23.5684 -12.218
ltibia 22.8172
lfoot -7.04853 24.5583
ltoes -8.58272
531
root -30.3409 16.7989 -14.7224 -314.012 -54.8544 303.147
lowerback 25.4444 -0.571914 -1.64177
upperback 7.72035 -1.48076 2.00945
thorax -5.47661 -0.959804 3.59311
lowerneck -6.04896 -5.89955 -4.19535
upperneck 4.56564 -9.26144 18.9466
head 3.49148 -4.21564 5.98478
rclavicle 2.22639e-014 -6.99722e-014
rhumerus 20.5835 2.79724 -10.4251
rradius 80.2874
rwrist -24.6201
rhand -15.5163 13.7562
rfingers 7.12502
rthumb 10.6668 -15.953
lclavicle 2.22639e-014 -6.99722e-014
lhumerus 6.97226 -35.5374 46.3139
lradius 41.8942
lwrist 12.8308
lhand -24.4317 21.574
lfingers 7.12502
lthumb 2.06043 51.5438
rfemur -76.8521 -43.7733 6.68989
rtibia 113.62
rfoot -5.9214 10.8579
rtoes -11.4168
lfemur -10.7739 23.2056 -14.0111
ltibia 24.5824
lfoot -10.7931 25.2147
ltoes -5.11788
532
root -30.4889 16.6663 -14.8417 -315.84 -55.656 305.32
lowerback 25.3389 -0.308859 -3.34553
upperback 7.99044 -1.6115 1.30152
thorax -5.08966 -1.03632 3.82383
lowerneck -6.34204 -5.79298 -3.56763
upperneck 4.56329 -9.14181 18.6014
head 3.48097 -4.14257 5.77101
rclavicle -4.77083e-015 6.99722e-014
rhumerus 18.8753 3.67833 -12.9312
rradius 82.4663
rwrist -24.5382
rhand -15.6251 13.6635
rfingers 7.12502
rthumb 10.5618 -16.0512
lclavicle -4.77083e-015 6.99722e-014
lhumerus 7.31402 -35.2097 49.0063
lradius 39.7493
lwrist 12.2434
lhand -24.5459 21.7606
lfingers 7.12502
lthumb 1.95016 51.7314
rfemur -76.5311 -41.0112 7.20189
rtibia 111.286
rfoot -4.61914 10.8567
rtoes -12.0092
lfemur -11.254 22.9319 -15.38
ltibia 26.0595
lfoot -13.9997 25.5417
ltoes -2.22361
533
root -30.6336 16.5514 -14.9407 -317.145 -56.164 306.92
lowerback 25.1638 -0.141177 -4.44182
upperback 8.251 -1.70253 0.677668
thorax -4.69299 -1.09993 3.78349
lowerneck -6.61596 -5.67727 -3.03056
upperneck 4.62274 -9.00961 18.2323
head 3.48777 -4.06207 5.56721
rclavicle -1.11319e-014 4.77083e-014
rhumerus 17.1951 4.8672 -15.5477
rradius 84.4943
rwrist -24.4747
rhand -15.7496 13.5573
rfingers 7.12502
rthumb 10.4417 -16.1634
lclavicle -1.11319e-014 4.77083e-014
lhumerus 7.50373 -35.1029 51.7275
lradius 37.7211
lwrist 11.7745
lhand -24.5949 21.886
lfingers 7.12502
lthumb 1.90283 51.8573
rfemur -75.9106 -38.0897 8.2746
rtibia 108.572
rfoot -2.99454 10.7322
rtoes -11.8661
lfemur -11.5468 22.7189 -16.1798
ltibia 27.2605
lfoot -16.7748 25.5805
ltoes 0.258596
534
root -30.7751 16.4497 -15.0178 -318.038 -56.3975 308.035
lowerback 24.9565 -0.0842802 -4.96264
upperback 8.50153 -1.78401 0.141627
thorax -4.30842 -1.1588 3.50592
lowerneck -6.84669 -5.54753 -2.61531
upperneck 4.73083 -8.85077 17.8453
head 3.50406 -3.96911 5.38193
rclavicle 1.74931e-014 6.36111e-015
rhumerus 15.5886 6.38767 -18.1962
rradius 86.2745
rwrist -24.4662
rhand -15.8613 13.4741
rfingers 7.12502
rthumb 10.334 -16.252
lclavicle 1.74931e-014 6.36111e-015
lhumerus 7.49523 -35.2186 54.5154
lradius 35.8997
lwrist 11.4513
lhand -24.5961 21.9483
lfingers 7.12502
lthumb 1.90164 51.9195
rfemur -74.9613 -35.2708 9.7862
rtibia 105.472
rfoot -1.07704 10.4978
rtoes -11.0884
lfemur -11.6632 22.5401 -16.5038
ltibia 28.2504
lfoot -19.1806 25.4397
ltoes 2.3486
